<?xml version="1.0" standalone="no"?><svg xmlns="http://www.w3.org/2000/svg" viewBox="0 0 1440 320"><path fill="#4f98ca" fill-opacity="1" d="M0,0L8.3,32C16.6,64,33,128,50,128C66.2,128,83,64,99,69.3C115.9,75,132,149,149,197.3C165.5,245,182,267,199,261.3C215.2,256,232,224,248,213.3C264.8,203,281,213,298,224C314.5,235,331,245,348,250.7C364.1,256,381,256,397,234.7C413.8,213,430,171,447,138.7C463.4,107,480,85,497,96C513.1,107,530,149,546,144C562.8,139,579,85,596,101.3C612.4,117,629,203,646,240C662.1,277,679,267,695,229.3C711.7,192,728,128,745,138.7C761.4,149,778,235,794,224C811,213,828,107,844,64C860.7,21,877,43,894,64C910.3,85,927,107,943,122.7C960,139,977,149,993,144C1009.7,139,1026,117,1043,90.7C1059.3,64,1076,32,1092,53.3C1109,75,1126,149,1142,176C1158.6,203,1175,181,1192,144C1208.3,107,1225,53,1241,69.3C1257.9,85,1274,171,1291,213.3C1307.6,256,1324,256,1341,250.7C1357.2,245,1374,235,1390,213.3C1406.9,192,1423,160,1432,144L1440,128L1440,0L1431.7,0C1423.4,0,1407,0,1390,0C1373.8,0,1357,0,1341,0C1324.1,0,1308,0,1291,0C1274.5,0,1258,0,1241,0C1224.8,0,1208,0,1192,0C1175.2,0,1159,0,1142,0C1125.5,0,1109,0,1092,0C1075.9,0,1059,0,1043,0C1026.2,0,1010,0,993,0C976.6,0,960,0,943,0C926.9,0,910,0,894,0C877.2,0,861,0,844,0C827.6,0,811,0,794,0C777.9,0,761,0,745,0C728.3,0,712,0,695,0C678.6,0,662,0,646,0C629,0,612,0,596,0C579.3,0,563,0,546,0C529.7,0,513,0,497,0C480,0,463,0,447,0C430.3,0,414,0,397,0C380.7,0,364,0,348,0C331,0,314,0,298,0C281.4,0,265,0,248,0C231.7,0,215,0,199,0C182.1,0,166,0,149,0C132.4,0,116,0,99,0C82.8,0,66,0,50,0C33.1,0,17,0,8,0L0,0Z"></path></svg>